<?xml version="1.0" encoding="UTF-8"?>
<svg id="Layer_2" data-name="Layer 2" xmlns="http://www.w3.org/2000/svg" viewBox="0 0 429.16 75.3">
  <defs>
    <style>
      .cls-1 {
        stroke-width: 0px;
      }
    </style>
  </defs>
  <g id="Layer_1-2" data-name="Layer 1">
    <path class="cls-1" d="m381.29,37.57c0,13.37-10.22,23.56-23.59,23.54-13.25-.02-23.57-10.37-23.57-23.64,0-13.31,10.28-23.52,23.66-23.52,13.35,0,23.51,10.22,23.51,23.62Zm-35.27-.21c-.02,7.14,4.56,12.38,11.4,13.02,5.55.52,10.79-4.07,11.95-10.48,1.5-8.26-4.54-15.67-12.43-15.24-6.06.33-10.9,5.95-10.92,12.7Z"/>
    <path class="cls-1" d="m234.76,37.58c-.02,13.37-10.21,23.53-23.59,23.51-13.24-.02-23.57-10.4-23.54-23.64.03-13.33,10.29-23.51,23.65-23.48,13.35.03,23.49,10.24,23.47,23.62Zm-35.28-.23c-.02,7.04,4.47,12.29,11.17,13.02,5.64.62,10.89-3.79,12.17-10.22,1.67-8.37-4.38-15.94-12.39-15.51-6.07.33-10.92,5.96-10.94,12.71Z"/>
    <path class="cls-1" d="m181.17,37.55c0,13.37-10.17,23.54-23.55,23.54-13.25,0-23.55-10.32-23.55-23.6,0-13.32,10.25-23.53,23.6-23.51,13.36.02,23.5,10.19,23.5,23.57Zm-35.31-.08c.02,7.09,4.77,12.4,11.58,12.95,5.64.46,10.84-4.29,11.92-10.88,1.33-8.16-4.8-15.39-12.64-14.89-6.05.38-10.88,6.09-10.86,12.83Z"/>
    <path class="cls-1" d="m388.49,38.23c0-6.83,0-13.67,0-20.5,0-1.19-.13-2.53,1.6-2.49,7.15.17,14.44-.42,21.42.78,11.74,2.03,18.48,12.11,17.57,24.47-.82,11.15-9.66,19.88-21.15,20.5-5.82.32-11.66.06-17.49.14-1.84.03-1.96-1.01-1.95-2.41.03-6.83.01-13.67.01-20.5Zm11.66,12.39c5.96.14,11.79.83,15.4-5.09,2.77-4.55,2.47-11.11-.64-15.33-3.8-5.14-9.22-4.71-14.75-4.39v24.81Z"/>
    <path class="cls-1" d="m253.49,46.84c0,4.05-.07,7.88.03,11.7.05,1.95-.64,2.71-2.61,2.59-2.32-.13-4.66-.07-6.99-.02-1.36.03-1.94-.49-1.93-1.9.03-13.99,0-27.99.08-41.98,0-.67,1-1.91,1.52-1.9,7.65.1,15.36-.2,22.91.74,7.46.93,12.03,7.23,12.14,14.86.12,7.8-3.67,12.96-11.5,14.66-4.01.87-8.24.75-12.37,1.09-.32.03-.64.08-1.28.16Zm.13-10.03c3.62-.28,6.91-.39,10.16-.82,2.47-.32,3.72-2.04,3.77-4.52.05-2.5-1.04-4.68-3.44-5.17-3.4-.69-6.95-.7-10.49-1v11.5Z"/>
    <path class="cls-1" d="m327.23,51.92c-4.9,7.14-15.07,10.65-23.88,8.51-11.39-2.76-18.79-13.95-17.22-26.03,1.59-12.2,11.36-20.61,23.74-20.44,6.23.08,11.38,2.71,15.96,6.73,1.22,1.07,1.35,1.94-.01,2.99-1.9,1.48-3.76,3.04-5.58,4.62-.95.82-1.73.85-2.52-.15-3.69-4.7-11.05-4.55-15.29-1.03-4.48,3.72-6.02,11.42-3.19,16.65,2.7,4.99,8.99,7.59,14.33,5.75,1.45-.5,2.67-1.63,4.06-2.34.65-.33,1.71-.75,2.16-.46,2.51,1.59,4.89,3.39,7.44,5.21Z"/>
    <path class="cls-1" d="m58.38,15.74c-6.71-6.79-14.87-9.47-24.13-7.9-11.52,1.95-18.81,8.98-22.12,20.14-.81,2.75-2.31,4.08-4.45,3.67-2.27-.44-3.25-2.37-2.69-5.27C8.12,10.25,25.95-2.02,42.76.28c8.68,1.19,15.97,4.91,21.91,11.34.47.51,1.36.86,2.08.9,5.86.38,10.4,4.3,11.27,9.85.87,5.53-2.1,10.62-7.42,12.73-4.55,1.8-10.06.32-13.09-3.52-3.27-4.14-3.5-9.64-.58-13.96.42-.62.9-1.19,1.44-1.89Zm8.27,12.71c2.43-.06,4.26-1.96,4.18-4.33-.09-2.43-1.94-4.17-4.39-4.11-2.45.06-4.26,1.93-4.17,4.32.09,2.45,1.94,4.19,4.38,4.12Z"/>
    <path class="cls-1" d="m19.94,59.61c12.62,14.03,36.94,9.63,44.55-7.87.56-1.29.99-2.65,1.49-3.97.92-2.43,2.53-3.49,4.48-2.94,2.2.62,3.28,2.64,2.51,5.19-2.86,9.45-8.52,16.67-17.32,21.29-13.73,7.2-31.4,4.64-42.23-7.54-.54-.6-1.68-.85-2.57-.94C4.17,62.18-.36,56.96.02,50.25c.35-6.1,5.9-11,12.26-10.65,4.44.24,7.74,2.49,9.7,6.45,2,4.04,1.72,8.06-.82,11.85-.37.55-.76,1.07-1.22,1.72Zm-3.99-8.45c-.07-2.42-1.95-4.2-4.39-4.15-2.49.04-4.2,1.82-4.14,4.32.06,2.45,1.93,4.29,4.31,4.22,2.35-.07,4.28-2.08,4.22-4.39Z"/>
    <path class="cls-1" d="m112.51,50.46c5.09,0,9.83.11,14.55-.05,2.25-.08,2.96.73,2.82,2.86-.13,1.91-.06,3.83-.02,5.74.03,1.44-.5,2.1-2.04,2.09-8.24-.05-16.49-.05-24.73,0-1.68.01-2.12-.67-2.12-2.24.04-13.82.05-27.65,0-41.47,0-1.7.72-2.18,2.24-2.15,2.25.04,4.5.09,6.74-.02,1.95-.09,2.62.69,2.61,2.63-.07,9.83-.03,19.65-.03,29.48,0,.91,0,1.82,0,3.12Z"/>
  </g>
</svg>